<?xml version="1.0" encoding="utf-8"?>
<!-- Generator: Adobe Illustrator 21.0.2, SVG Export Plug-In . SVG Version: 6.00 Build 0)  -->
<svg version="1.1" id="Layer_1" xmlns="http://www.w3.org/2000/svg" xmlns:xlink="http://www.w3.org/1999/xlink" x="0px" y="0px"
	 viewBox="0 0 1000 1000" style="enable-background:new 0 0 1000 1000;" xml:space="preserve">
<style type="text/css">
	.st0{fill:#39C3EF;}
	.st1{fill:#FFFFFF;}
</style>
<path class="st0" d="M261.2,547.5c0,8.3-1.6,15.5-5,21.9s-7.9,11.5-13.7,15.7s-12.5,7.5-20.3,9.7c-7.7,2.2-15.9,3.4-24.4,3.4H103
	V401.9h105.1c6.8,0,12.9,1.4,18.5,4.4s10.1,6.8,14.1,11.5c3.8,4.8,7,10.1,8.9,16.1c2.2,6,3.2,12.1,3.2,18.1c0,9.5-2.4,18.5-7.2,27
	c-4.8,8.3-11.7,14.7-21.1,18.7c11.3,3.4,20.1,9.3,26.6,17.9C258,523.8,261.2,534.6,261.2,547.5z M141.2,434.4v49.5h50.9
	c6.4,0,11.9-2.2,16.5-6.6s6.8-10.5,6.8-18.3c0-7.5-2-13.5-6.2-17.9s-9.3-6.6-15.3-6.6h-52.6v-0.1H141.2z M222.9,540.3
	c0-3.6-0.6-7-1.8-10.1c-1.2-3.2-2.8-6-4.8-8.3c-2-2.4-4.4-4.4-7.2-5.8c-2.8-1.4-5.8-2-9.1-2h-58.8v51.7H198c3.6,0,6.8-0.6,9.7-2
	c3-1.2,5.8-3.2,7.9-5.4c2.2-2.4,4-5,5.2-8.1C222.3,547.3,222.9,543.9,222.9,540.3z"/>
<path class="st1" d="M318.8,598.1V401.9H357v162.9h100.1v33.4C457.1,598.1,318.8,598.1,318.8,598.1z"/>
<path class="st1" d="M583,599.5c-13.9,0-26.4-2.8-37.9-8.3c-11.5-5.6-21.3-13.1-29.4-22.5c-8.1-9.3-14.5-19.9-18.9-32
	c-4.4-11.9-6.6-24.2-6.6-36.8c0-13.1,2.4-25.6,7-37.5c4.8-11.9,11.3-22.6,19.7-31.8c8.3-9.1,18.3-16.5,29.8-22.1
	c11.5-5.4,23.8-8.1,37.4-8.1c13.9,0,26.4,3,37.9,8.7s21.3,13.3,29.4,22.8c8.1,9.3,14.3,20.1,18.9,32c4.4,11.9,6.6,24.2,6.6,36.6
	c0,13.1-2.4,25.6-7,37.5c-4.8,11.9-11.1,22.4-19.5,31.6c-8.3,9.1-18.1,16.5-29.6,21.9C609.1,596.8,596.6,599.5,583,599.5z
	 M528.6,500c0,8.5,1.2,16.7,3.8,24.6c2.6,7.9,6.2,14.9,10.7,21.1c4.8,6.2,10.5,10.9,17.3,14.7s14.5,5.6,23.2,5.6
	c8.9,0,16.7-1.8,23.4-5.8c6.8-3.8,12.3-8.7,17.1-15.1c4.6-6.4,8.1-13.3,10.5-21.1c2.4-7.7,3.6-15.9,3.6-23.8
	c0-8.5-1.2-16.7-3.8-24.6s-6.2-14.9-10.9-21.1c-4.8-6.2-10.3-10.9-17.1-14.5s-14.3-5.4-22.8-5.4c-8.9,0-16.7,2-23.4,5.8
	c-6.8,3.8-12.5,8.7-17.1,14.9c-4.8,6.2-8.3,13.1-10.7,21.1C529.8,483.9,528.6,491.9,528.6,500z"/>
<path class="st1" d="M865.4,576.1c-15.1,15.7-32.6,23.4-52.3,23.4c-12.5,0-24.2-2.8-35.4-8.3s-20.7-12.9-28.8-22.3
	c-8.1-9.3-14.7-20.1-19.3-32.2c-4.8-12.1-7-24.8-7-37.9c0-13.5,2.4-26.2,7-37.9c4.8-11.9,11.3-22.3,19.7-31.2
	c8.3-8.9,18.3-16.1,29.6-21.3c11.3-5.2,23.6-7.9,37-7.9c17.9,0,33.2,3.8,45.9,11.5s22.3,18.1,28.8,31.2l-28.8,21.1
	c-4.8-9.7-11.3-17.3-19.9-22.4c-8.3-5.2-17.7-7.7-27.8-7.7c-8.1,0-15.5,1.8-22.1,5.2c-6.6,3.6-12.1,8.3-16.7,14.3
	c-4.6,6.2-8.1,13.1-10.7,21.1c-2.6,7.9-3.8,16.3-3.8,25.2c0,9.1,1.4,17.9,4.2,25.8c2.8,7.9,6.6,14.9,11.5,20.9
	c5,6,10.7,10.5,17.5,13.9s14.1,5.2,22.3,5.2c18.1,0,34.4-8.9,48.9-26.8v-13.9h-39.3v-27.6H897v100.9h-31.6L865.4,576.1L865.4,576.1z
	"/>
</svg>
