<?xml version="1.0" encoding="utf-8"?>
<!-- Generator: Adobe Illustrator 21.0.2, SVG Export Plug-In . SVG Version: 6.00 Build 0)  -->
<svg version="1.1" id="Layer_1" xmlns="http://www.w3.org/2000/svg" xmlns:xlink="http://www.w3.org/1999/xlink" x="0px" y="0px"
	 viewBox="0 0 500 500" style="enable-background:new 0 0 500 500;" xml:space="preserve">
<style type="text/css">
	.st0{fill:#50E3C2;}
</style>
<g>
	<g>
		<path class="st0" d="M130.8,156h46.4l63.3,77v-77H279v188h-38.4v-57.4l-20.1-23.9L174.1,344h-44.8l65.2-112L130.8,156z"/>
	</g>
	<g>
		<path class="st0" d="M300.4,156c31.9,0,70.3,15.6,70.3,58.2c0,43.2-38.1,58.8-70.3,58.8H279v71h-38.4V156H300.4z M279,240.6h15.3
			c20.4,0,35.7-6.7,35.7-25.5c0-16.6-12.3-26.6-30.6-26.6H279V240.6z"/>
	</g>
</g>
<g>
	<path class="st0" d="M250,493.5c-65,0-126.2-25.3-172.2-71.3S6.5,315,6.5,250S31.8,123.8,77.8,77.8S185,6.5,250,6.5
		s126.2,25.3,172.2,71.3s71.3,107.1,71.3,172.2s-25.3,126.2-71.3,172.2S315,493.5,250,493.5z M250,42.5
		C135.6,42.5,42.5,135.6,42.5,250S135.6,457.5,250,457.5S457.5,364.4,457.5,250S364.4,42.5,250,42.5z"/>
</g>
</svg>
