<?xml version="1.0" encoding="utf-8"?>
<!-- Generator: Adobe Illustrator 21.0.2, SVG Export Plug-In . SVG Version: 6.00 Build 0)  -->
<svg version="1.1" id="Layer_1" xmlns="http://www.w3.org/2000/svg" xmlns:xlink="http://www.w3.org/1999/xlink" x="0px" y="0px"
	 viewBox="0 0 1000 1000" style="enable-background:new 0 0 1000 1000;" xml:space="preserve">
<style type="text/css">
	.st0{fill:#414141;}
	.st1{fill:#FF6A5C;}
</style>
<g>
	<path class="st0" d="M103,495c0-29.5,22.8-51.7,51.9-51.7s51.9,22.2,51.9,51.7c0,29.5-22.8,51.7-51.9,51.7S103,524.5,103,495z
		 M178.9,495c0-15.1-9.6-26.3-24-26.3c-14.7,0-24.2,11.2-24.2,26.3c0,15.3,10,26.5,24.2,26.5C169.4,521.5,178.9,510.3,178.9,495z"/>
	<path class="st0" d="M293.9,544.9v-13c-7.9,9.4-18.5,15.1-30.1,15.1c-27.9,0-42.9-25.2-42.9-52.1c0-26.5,15.7-51.5,43.2-51.5
		c11,0,21.2,4.1,28.9,12.2v-63.3h28.5v152.7H293.9z M293.3,495c0-15.3-8.8-26.3-22-26.3c-14.9,0-22.2,11.8-22.2,26.5
		c0,14.5,7.5,26.5,22.2,26.5C284.4,521.7,293.3,508.7,293.3,495z"/>
	<path class="st0" d="M414.6,544.9v-13c-7.9,9.4-18.5,15.1-30.1,15.1c-27.9,0-42.9-25.2-42.9-52.1c0-26.5,15.7-51.5,43.2-51.5
		c11,0,21.2,4.1,28.9,12.2v-63.3h28.5v152.7H414.6z M414,495c0-15.3-8.8-26.3-22-26.3c-14.9,0-22.2,11.8-22.2,26.5
		c0,14.5,7.5,26.5,22.2,26.5C405.1,521.7,414,508.7,414,495z"/>
	<path class="st0" d="M430.7,589.1l18.7-17.9c2.2,6.9,6.9,9.4,12,9.4c7.3,0,11.8-6.1,11.8-15.5L473,445.6h29.1v120.9
		c0,23.4-14.7,41.3-39.5,41.3C449.2,607.8,436.8,601.7,430.7,589.1z M487.5,397.9c10.2,0,18.7,8.5,18.7,18.7s-8.5,18.7-18.7,18.7
		c-10.2,0-18.7-8.5-18.7-18.7S477.3,397.9,487.5,397.9z"/>
	<path class="st0" d="M524.1,495c0-29.5,22.8-51.7,51.9-51.7c29.1,0,51.9,22.2,51.9,51.7c0,29.5-22.8,51.7-51.9,51.7
		C546.9,546.7,524.1,524.5,524.1,495z M600,495c0-15.1-9.6-26.3-24-26.3c-14.7,0-24.2,11.2-24.2,26.3c0,15.3,10,26.5,24.2,26.5
		C590.5,521.5,600,510.3,600,495z"/>
	<path class="st0" d="M647.9,544.9V392.2h28.5v63.3c7.7-8.1,17.9-12.2,28.9-12.2c27.5,0,43.2,25,43.2,51.5
		c0,26.9-15.1,52.1-42.9,52.1c-11.6,0-22.4-5.7-30.1-15.1v13H647.9z M720.1,495.2c0-14.7-7.3-26.5-22.2-26.5c-13.2,0-22,11-22,26.3
		c0,13.6,9,26.7,22,26.7C712.6,521.7,720.1,509.7,720.1,495.2z"/>
	<path class="st0" d="M778.3,511.5c6.9,7.9,17.9,11.2,27.5,11.2c6.1,0,10.6-2.4,10.6-6.1c0-5.1-5.1-7.5-13.4-10
		c-15.5-4.5-34.6-13-34.6-33.2c0-19.1,18.5-29.9,35.2-29.9c15.1,0,25.6,5.1,34.6,14.5l-15.9,17.1c-4.3-4.7-12.2-9-18.1-9
		c-5.3,0-9.2,2.4-9.2,6.3c0,4.9,5.7,7.3,14.7,10c15.1,4.5,34.4,13.8,34.4,32.8c0,18.7-16.1,31.8-38.5,31.8
		c-17.9,0-32.6-5.1-43.4-16.7L778.3,511.5z"/>
	<path class="st1" d="M878.3,509.3c10.2,0,18.7,8.5,18.7,18.7c0,10.2-8.5,18.7-18.7,18.7s-18.7-8.5-18.7-18.7
		C859.5,517.8,868.1,509.3,878.3,509.3z"/>
</g>
</svg>
