<svg xmlns="http://www.w3.org/2000/svg" xmlns:xlink="http://www.w3.org/1999/xlink" xmlns:fi="http://pattern.flaticon.com/" x="0" y="0" width="700" height="350" viewBox="0 0 700 350"><rect x="0px" y="0px" width="100%" height="100%" opacity="1" fill="#ffffff"/><defs><g transform="matrix(0.45158165073789414 0.33274439638316516 -0.33274439638316516 0.45158165073789414 160.43488236935812 201.47021858636822)" id="L1_26"><path d="M16.585,7.069c-0.597,0.342-1.189,0.712-1.761,1.102c-0.457,0.311-0.575,0.933-0.264,1.389   c0.193,0.285,0.508,0.438,0.828,0.438c0.194,0,0.39-0.056,0.562-0.173c0.529-0.36,1.078-0.703,1.63-1.02   c0.479-0.274,0.645-0.886,0.371-1.365C17.676,6.96,17.065,6.794,16.585,7.069z" fill="#e6e6e6"/><path d="M43.21,8.084c-0.299,0.464-0.165,1.083,0.299,1.382c0.539,0.347,1.069,0.718,1.577,1.102   c0.181,0.137,0.393,0.203,0.603,0.203c0.303,0,0.602-0.137,0.798-0.396c0.333-0.44,0.247-1.067-0.194-1.401   c-0.547-0.415-1.12-0.814-1.701-1.189C44.129,7.485,43.509,7.619,43.21,8.084z" fill="#e6e6e6"/><path d="M56.922,28.428c-0.042-0.551-0.523-0.958-1.072-0.922c-0.551,0.042-0.964,0.521-0.922,1.072   c0.023,0.305,0.023,0.614,0.035,0.922H52v8h8v-8h-3.038C56.949,29.142,56.949,28.782,56.922,28.428z M58,35.5h-4v-4h4V35.5z" fill="#e6e6e6"/><path d="M4.713,21.018c-0.242,0.644-0.462,1.307-0.654,1.971c-0.154,0.53,0.152,1.085,0.683,1.238   c0.093,0.027,0.186,0.04,0.278,0.04c0.434,0,0.833-0.285,0.96-0.723c0.178-0.615,0.381-1.229,0.605-1.824   C6.779,21.204,6.518,20.627,6,20.433C5.486,20.239,4.907,20.5,4.713,21.018z" fill="#e6e6e6"/><path d="M54.483,21.674c-0.526,0.167-0.817,0.73-0.65,1.256c0.192,0.604,0.363,1.227,0.51,1.852   c0.107,0.461,0.519,0.772,0.973,0.772c0.075,0,0.152-0.008,0.229-0.026c0.538-0.125,0.872-0.663,0.746-1.201   c-0.157-0.675-0.343-1.349-0.551-2.003C55.571,21.798,55.008,21.508,54.483,21.674z" fill="#e6e6e6"/><path d="M49.398,11.724c-0.385-0.398-1.018-0.406-1.414-0.022s-0.406,1.017-0.021,1.414c0.443,0.458,0.875,0.939,1.283,1.431   c0.197,0.238,0.482,0.361,0.771,0.361c0.225,0,0.451-0.076,0.638-0.23c0.425-0.353,0.483-0.983,0.131-1.408   C50.344,12.738,49.878,12.218,49.398,11.724z" fill="#e6e6e6"/><path d="M12.948,12.223c0.404-0.377,0.426-1.01,0.049-1.414c-0.377-0.404-1.01-0.425-1.414-0.049   c-0.504,0.47-0.996,0.966-1.463,1.474c-0.374,0.406-0.347,1.039,0.06,1.413c0.192,0.176,0.435,0.264,0.676,0.264   c0.27,0,0.54-0.109,0.737-0.323C12.025,13.117,12.481,12.658,12.948,12.223z" fill="#e6e6e6"/><path d="M53.286,19.923c0.149,0,0.302-0.034,0.444-0.105c0.495-0.246,0.696-0.846,0.45-1.341c-0.31-0.621-0.646-1.234-0.999-1.823   c-0.284-0.473-0.897-0.627-1.372-0.343c-0.474,0.285-0.627,0.899-0.343,1.372c0.327,0.544,0.638,1.111,0.923,1.685   C52.564,19.72,52.919,19.923,53.286,19.923z" fill="#e6e6e6"/><path d="M5.032,29.22c0.033-0.641,0.09-1.285,0.17-1.916c0.069-0.548-0.318-1.048-0.866-1.118   c-0.538-0.066-1.048,0.317-1.118,0.866c-0.086,0.68-0.148,1.375-0.183,2.066C3.028,29.253,3.05,29.381,3.092,29.5H0v8h8v-8H4.962   C4.994,29.41,5.027,29.32,5.032,29.22z M6,35.5H2v-4h4V35.5z" fill="#e6e6e6"/><path d="M7.555,15.492c-0.384,0.572-0.75,1.167-1.089,1.768c-0.271,0.481-0.102,1.091,0.38,1.362   c0.155,0.087,0.324,0.129,0.49,0.129c0.349,0,0.688-0.183,0.872-0.509c0.313-0.556,0.653-1.106,1.008-1.636   c0.308-0.459,0.185-1.08-0.273-1.388C8.482,14.91,7.862,15.033,7.555,15.492z" fill="#e6e6e6"/><path d="M4,8.5c1.858,0,3.411-1.28,3.858-3h12.143c-0.282,0.27-0.391,0.693-0.242,1.08c0.152,0.398,0.532,0.643,0.934,0.643   c0.119,0,0.24-0.021,0.358-0.067c0.597-0.229,1.209-0.437,1.82-0.618C23.332,6.401,23.6,5.961,23.563,5.5h2.315   C25.921,5.535,25.952,5.584,26,5.611v0.555V8.5h3.667h2H34V5.833c0.213,0.034,0.427,0.064,0.638,0.104   c0.063,0.012,0.125,0.017,0.186,0.017c0.339,0,0.647-0.178,0.829-0.454h2.179c-0.031,0.053-0.073,0.097-0.094,0.156   c-0.185,0.521,0.087,1.092,0.608,1.277c0.604,0.214,1.204,0.454,1.785,0.711c0.132,0.059,0.27,0.086,0.405,0.086   c0.383,0,0.75-0.222,0.915-0.595c0.224-0.505-0.004-1.096-0.509-1.319c-0.258-0.115-0.529-0.209-0.793-0.316h11.994   c0.447,1.72,1.999,3,3.858,3c2.206,0,4-1.794,4-4s-1.794-4-4-4c-1.859,0-3.411,1.28-3.858,3H34v-3h-8v3H7.858   c-0.447-1.72-2-3-3.858-3c-2.206,0-4,1.794-4,4S1.794,8.5,4,8.5z M56,2.5c1.103,0,2,0.897,2,2s-0.897,2-2,2s-2-0.897-2-2   S54.897,2.5,56,2.5z M28,2.5h4v1.055v1.278V6.5h-0.333h-2H28V6.167V3.556V2.5z M4,2.5c1.103,0,2,0.897,2,2s-0.897,2-2,2   s-2-0.897-2-2S2.897,2.5,4,2.5z" fill="#e6e6e6"/><path d="M31,10.5c0-0.552-0.448-1-1-1s-1,0.448-1,1v0.702L11.151,38.5h5.093c3.173,0,5.755,2.582,5.755,5.756V47.5v2v5h2v5h12v-5h2   v-5v-2v-3.244c0-3.174,2.582-5.756,5.756-5.756h5.093L31,11.202V10.5z M30,34.5c1.103,0,2,0.897,2,2s-0.897,2-2,2s-2-0.897-2-2   S28.897,34.5,30,34.5z M34,57.5h-8v-3h8V57.5z M36,52.5H24v-3h12V52.5z M43.756,36.5C39.479,36.5,36,39.979,36,44.256V47.5H24   v-3.244c0-4.276-3.479-7.756-7.755-7.756h-1.396L29,14.857v17.785c-1.72,0.447-3,2-3,3.858c0,2.206,1.794,4,4,4s4-1.794,4-4   c0-1.858-1.28-3.411-3-3.858V14.857L45.151,36.5H43.756z" fill="#e6e6e6"/></g><path d="M57,13.993c0-0.016-0.006-0.03-0.007-0.046c-0.004-0.074-0.013-0.146-0.032-0.216c-0.009-0.03-0.023-0.057-0.035-0.086  c-0.021-0.054-0.041-0.106-0.071-0.155c-0.018-0.03-0.041-0.056-0.061-0.083c-0.032-0.043-0.065-0.085-0.103-0.122  c-0.026-0.025-0.056-0.047-0.085-0.069c-0.027-0.021-0.05-0.046-0.079-0.065c-0.017-0.01-0.036-0.015-0.053-0.024  c-0.014-0.008-0.025-0.02-0.04-0.027l-27-13c-0.284-0.137-0.615-0.132-0.895,0.014l-25,13c-0.011,0.006-0.018,0.015-0.029,0.021  c-0.011,0.006-0.024,0.009-0.036,0.016c-0.034,0.021-0.06,0.049-0.091,0.074c-0.029,0.023-0.06,0.044-0.087,0.07  c-0.038,0.038-0.068,0.08-0.099,0.123c-0.02,0.028-0.044,0.053-0.061,0.083c-0.031,0.053-0.052,0.11-0.072,0.168  c-0.009,0.025-0.022,0.047-0.029,0.073C3.013,13.824,3,13.911,3,14v32c0,0.379,0.214,0.725,0.553,0.895l26,13  c0.015,0.007,0.031,0.004,0.046,0.011C29.728,59.962,29.862,60,30,60s0.273-0.038,0.401-0.095c0.015-0.007,0.032-0.004,0.046-0.011  l26-13C56.786,46.725,57,46.379,57,46V14c0-0.001,0-0.002,0-0.004C57,13.995,57,13.994,57,13.993z M29.017,2.118L53.73,14.017  L30,25.882L6.201,13.983L29.017,2.118z M5,15.618l24,12v29.764l-24-12V15.618z M55,45.382l-24,12V27.618l24-12V45.382z" transform="matrix(0.4707529723847955 -0.247764727618046 0.247764727618046 0.4707529723847955 234.44446899991476 44.310352656997516)" id="L1_27" fill="#e6e6e6"/><path d="M59.985,7c0-1.87-0.728-3.627-2.05-4.949S54.855,0,52.985,0s-3.627,0.729-4.95,2.051l-1.414,1.414l-4.243,4.242l0,0  L4.536,45.551c-0.11,0.109-0.192,0.243-0.242,0.391L0.051,58.669c-0.12,0.359-0.026,0.756,0.242,1.023  c0.19,0.19,0.446,0.293,0.707,0.293c0.106,0,0.212-0.017,0.316-0.052l12.728-4.243c0.147-0.049,0.281-0.132,0.391-0.241  l37.843-37.843l0,0l4.242-4.242l0,0l1.415-1.415C59.257,10.627,59.985,8.87,59.985,7z M52.278,14.778l-7.071-7.071l1.414-1.414  l7.071,7.071L52.278,14.778z M5.68,48.109l6.197,6.196l-9.296,3.099L5.68,48.109z M13.728,53.328l-7.071-7.07L43.793,9.121  l7.071,7.071L13.728,53.328z M55.106,11.95l-7.071-7.071l1.414-1.414C50.394,2.521,51.65,2,52.985,2s2.591,0.521,3.536,1.465  s1.464,2.2,1.464,3.535s-0.52,2.591-1.464,3.535L55.106,11.95z" transform="matrix(0.4554247260093689 0 0 0.4554247260093689 319.0723485648632 186.0723485648632)" id="L1_28" fill="#e6e6e6"/><path d="M59.717,5.95L54.06,0.293c-0.391-0.391-1.023-0.391-1.414,0l-3,3h0c-0.375-0.375-1.039-0.375-1.414,0l-2.828,2.828  l-1.414-1.414c-0.391-0.391-1.023-0.391-1.414,0l-9.899,9.899c-0.391,0.391-0.391,1.023,0,1.414  c0.195,0.195,0.451,0.293,0.707,0.293s0.512-0.098,0.707-0.293l9.192-9.192l0.707,0.707L28.743,22.782c0,0-0.001,0-0.001,0  l-0.001,0.001L14.271,37.254c-0.391,0.391-0.391,1.023,0,1.414l-2.032,2.031c-1.939-1.274-4.576-1.061-6.28,0.643  c-0.188,0.188-0.293,0.441-0.293,0.707s0.105,0.52,0.293,0.707c0.378,0.378,0.586,0.88,0.586,1.414c0,0.535-0.208,1.037-0.586,1.415  c-0.756,0.756-2.073,0.756-2.829,0c-0.272-0.271-0.673-0.364-1.038-0.236c-0.363,0.127-0.621,0.451-0.663,0.833L0.017,58.91  c-0.034,0.302,0.072,0.603,0.287,0.817c0.188,0.188,0.443,0.293,0.707,0.293c0.037,0,0.074-0.002,0.11-0.006l12.728-1.414  c0.382-0.043,0.706-0.301,0.833-0.663c0.127-0.362,0.035-0.767-0.237-1.038c-0.378-0.378-0.586-0.88-0.586-1.414  s0.208-1.036,0.586-1.414c0.756-0.756,2.073-0.756,2.829,0c0.375,0.375,1.039,0.375,1.414,0c1.711-1.711,1.918-4.363,0.626-6.304  l2.028-2.028l0,0c0.188,0.188,0.442,0.293,0.707,0.293s0.52-0.105,0.707-0.293l33.961-33.961c0.391-0.391,0.391-1.023,0-1.414l3-3  C60.108,6.974,60.108,6.341,59.717,5.95z M17.784,51.977c-1.494-0.822-3.514-0.56-4.753,0.681c-0.756,0.755-1.172,1.76-1.172,2.828  c0,0.449,0.074,0.887,0.215,1.3l-8.336,0.926l2.832-2.826C6.707,54.953,6.854,55,7.01,55h2c0.265,0,0.52-0.105,0.707-0.293l1-1  C10.905,53.52,11.01,53.266,11.01,53v-2c0-0.266-0.105-0.52-0.293-0.707l-1-1C9.53,49.105,9.275,49,9.01,49h-2  c-0.265,0-0.52,0.105-0.707,0.293l-1,1C5.116,50.48,5.01,50.734,5.01,51v2c0,0.171,0.057,0.33,0.139,0.477l-2.831,2.825l0.927-8.345  C4.642,48.437,6.301,48.073,7.374,47c1.285-1.285,1.512-3.233,0.679-4.753c1.14-0.62,2.599-0.454,3.563,0.509  c0.007,0.007,0.013,0.014,0.021,0.021l5.626,5.626l0.011,0.011C18.237,49.377,18.407,50.838,17.784,51.977z M7.01,52.586v-1.172  L7.424,51h1.172l0.414,0.414v1.172L8.596,53H7.424L7.01,52.586z M17.97,46.282l-4.242-4.242l1.919-1.919l4.243,4.243L17.97,46.282z   M22.049,43.618l-5.657-5.657L29.45,24.904l1.414,1.415c0.195,0.195,0.451,0.293,0.707,0.293s0.512-0.098,0.707-0.293  c0.391-0.391,0.391-1.023,0-1.414l-1.414-1.415l1.812-1.812l2.122,2.121c0.195,0.195,0.451,0.293,0.707,0.293  s0.512-0.098,0.707-0.293c0.391-0.391,0.391-1.023,0-1.414l-2.122-2.121l1.808-1.808l5.658,5.657L22.049,43.618z M42.969,22.698  l-5.658-5.657L48.939,5.414l5.657,5.657L42.969,22.698z M55.327,8.927l-4.243-4.243l2.27-2.27l4.243,4.243L55.327,8.927z" transform="matrix(2.5978681972404975e-17 -0.4242640733718872 0.4242640733718872 2.5978681972404975e-17 82.26158142089844 88.71742582321167)" id="L1_29" fill="#e6e6e6"/><g transform="matrix(0.49873829253792085 -0.09499777068874099 0.09499777068874099 0.49873829253792085 -8.779250179295335 302.8927916400467)" id="L1_30"><path d="M6.206,39.293c-0.391-0.391-1.023-0.391-1.414,0l-2.5,2.5c-1.769,1.769-1.769,4.646,0,6.414   c0.856,0.856,1.995,1.328,3.207,1.328c1.211,0,2.351-0.472,3.207-1.328c1.768-1.769,1.768-4.646,0-6.414L6.206,39.293z    M7.292,46.793c-0.96,0.958-2.63,0.956-3.586,0c-0.988-0.988-0.988-2.598,0-3.586l1.793-1.793l1.793,1.793   C8.279,44.195,8.279,45.805,7.292,46.793z" fill="#e6e6e6"/><path d="M58.28,30.962L33.531,6.213c-0.957-0.957-2.609-0.898-4.638-0.146C28.222,2.615,25.18,0,21.534,0   c-4.136,0-7.5,3.364-7.5,7.5v9.756C7.54,24.043,2.611,31.861,5.247,34.497l7.145,7.145l-0.065,0.065   c0.005,0.005,0.011,0.011,0.016,0.016l12.984,12.854l4.669,4.669c0.505,0.505,1.188,0.757,2.043,0.757   c1.405,0,3.279-0.679,5.604-2.035c3.276-1.911,7.091-4.974,10.738-8.621s6.71-7.462,8.621-10.738   C59.184,34.868,59.614,32.296,58.28,30.962z M48.042,35.713L37.423,25.094c-0.504-0.504-0.523-1.307-0.046-1.868   c1.732-2.031,3.277-4.406,3.805-6.424l11.016,10.905C52.804,28.313,51.935,31.511,48.042,35.713z M31.482,7.438   c0.297,0,0.511,0.064,0.635,0.188c0.613,0.613-0.245,3.435-3.083,7.534V8.132C30.097,7.667,30.935,7.438,31.482,7.438z M21.534,2   c2.831,0,5.169,2.152,5.466,4.905c-3.325,1.711-7.305,4.807-10.966,8.344V7.5C16.034,4.468,18.502,2,21.534,2z M16.562,17.527   c4.103-4.103,7.737-6.808,10.473-8.376v8.681c-1.328,1.657-2.916,3.451-4.816,5.351c-8.233,8.233-14.596,10.86-15.557,9.899   C5.701,32.123,8.326,25.763,16.562,17.527z M26.737,53.159L15.833,42.255c0.837-0.21,1.785-0.581,2.845-1.12   c0.403-0.207,0.885-0.137,1.196,0.173l10.514,10.484C28.261,52.993,27.037,53.459,26.737,53.159z M46.967,47.933   c-8.233,8.232-14.594,10.862-15.557,9.899l-2.897-2.897c0.963-0.334,1.959-0.893,2.859-1.401c0.553-0.313,0.918-0.853,1.003-1.482   c0.086-0.628-0.122-1.244-0.57-1.691l-10.52-10.47c-0.922-0.918-2.334-1.137-3.513-0.538c-2.135,1.086-3.293,1.19-3.787,1.054   l-5.33-5.33c1.185-0.282,2.6-0.902,4.238-1.858c2.227-1.299,4.704-3.139,7.207-5.325c0.12-0.104,0.239-0.209,0.359-0.314   c0.253-0.224,0.506-0.451,0.759-0.682c0.21-0.191,0.418-0.385,0.626-0.579c0.187-0.175,0.374-0.347,0.56-0.526   c0.413-0.393,0.822-0.791,1.226-1.195c0.439-0.439,0.873-0.885,1.3-1.334c0.734-0.771,1.431-1.546,2.102-2.318V30h2V18.523   c1.266-1.619,2.363-3.197,3.219-4.664c0.956-1.639,1.576-3.054,1.858-4.238l5.151,5.151l-0.065,0.065   c0.493,0.493,0.01,3.161-3.342,7.092c-1.161,1.362-1.096,3.33,0.153,4.579l10.619,10.619c0.376,0.376,0.894,0.59,1.426,0.59   c0.014,0,0.026,0,0.04,0c0.547-0.012,1.052-0.237,1.42-0.637c2.206-2.388,4.059-5.151,4.647-7.409l2.705,2.705   C57.826,33.336,55.202,39.697,46.967,47.933z" fill="#e6e6e6"/><path d="M30.155,27.879c0.566,0.566,0.879,1.319,0.879,2.121s-0.313,1.555-0.879,2.121c-1.133,1.133-3.109,1.133-4.242,0   c-0.566-0.566-0.879-1.319-0.879-2.121s0.312-1.555,0.879-2.121l-1.414-1.414c-0.944,0.943-1.465,2.199-1.465,3.535   s0.521,2.592,1.465,3.535C25.442,34.479,26.698,35,28.034,35s2.592-0.521,3.535-1.465c0.944-0.943,1.465-2.199,1.465-3.535   s-0.521-2.592-1.465-3.535L30.155,27.879z" fill="#e6e6e6"/></g></defs><g fi:class="KUsePattern"><pattern id="pattern_L1_26" width="350" height="350" patternUnits="userSpaceOnUse"><use xlink:href="#L1_26" x="-350" y="-350"/><use xlink:href="#L1_26" x="0" y="-350"/><use xlink:href="#L1_26" x="350" y="-350"/><use xlink:href="#L1_26" x="-350" y="0"/><use xlink:href="#L1_26" x="0" y="0"/><use xlink:href="#L1_26" x="350" y="0"/><use xlink:href="#L1_26" x="-350" y="350"/><use xlink:href="#L1_26" x="0" y="350"/><use xlink:href="#L1_26" x="350" y="350"/></pattern><rect x="0" y="0" width="100%" height="100%" fill="url(#pattern_L1_26)"/></g><g fi:class="KUsePattern"><pattern id="pattern_L1_27" width="350" height="350" patternUnits="userSpaceOnUse"><use xlink:href="#L1_27" x="-350" y="-350"/><use xlink:href="#L1_27" x="0" y="-350"/><use xlink:href="#L1_27" x="350" y="-350"/><use xlink:href="#L1_27" x="-350" y="0"/><use xlink:href="#L1_27" x="0" y="0"/><use xlink:href="#L1_27" x="350" y="0"/><use xlink:href="#L1_27" x="-350" y="350"/><use xlink:href="#L1_27" x="0" y="350"/><use xlink:href="#L1_27" x="350" y="350"/></pattern><rect x="0" y="0" width="100%" height="100%" fill="url(#pattern_L1_27)"/></g><g fi:class="KUsePattern"><pattern id="pattern_L1_28" width="350" height="350" patternUnits="userSpaceOnUse"><use xlink:href="#L1_28" x="-350" y="-350"/><use xlink:href="#L1_28" x="0" y="-350"/><use xlink:href="#L1_28" x="350" y="-350"/><use xlink:href="#L1_28" x="-350" y="0"/><use xlink:href="#L1_28" x="0" y="0"/><use xlink:href="#L1_28" x="350" y="0"/><use xlink:href="#L1_28" x="-350" y="350"/><use xlink:href="#L1_28" x="0" y="350"/><use xlink:href="#L1_28" x="350" y="350"/></pattern><rect x="0" y="0" width="100%" height="100%" fill="url(#pattern_L1_28)"/></g><g fi:class="KUsePattern"><pattern id="pattern_L1_29" width="350" height="350" patternUnits="userSpaceOnUse"><use xlink:href="#L1_29" x="-350" y="-350"/><use xlink:href="#L1_29" x="0" y="-350"/><use xlink:href="#L1_29" x="350" y="-350"/><use xlink:href="#L1_29" x="-350" y="0"/><use xlink:href="#L1_29" x="0" y="0"/><use xlink:href="#L1_29" x="350" y="0"/><use xlink:href="#L1_29" x="-350" y="350"/><use xlink:href="#L1_29" x="0" y="350"/><use xlink:href="#L1_29" x="350" y="350"/></pattern><rect x="0" y="0" width="100%" height="100%" fill="url(#pattern_L1_29)"/></g><g fi:class="KUsePattern"><pattern id="pattern_L1_30" width="350" height="350" patternUnits="userSpaceOnUse"><use xlink:href="#L1_30" x="-350" y="-350"/><use xlink:href="#L1_30" x="0" y="-350"/><use xlink:href="#L1_30" x="350" y="-350"/><use xlink:href="#L1_30" x="-350" y="0"/><use xlink:href="#L1_30" x="0" y="0"/><use xlink:href="#L1_30" x="350" y="0"/><use xlink:href="#L1_30" x="-350" y="350"/><use xlink:href="#L1_30" x="0" y="350"/><use xlink:href="#L1_30" x="350" y="350"/></pattern><rect x="0" y="0" width="100%" height="100%" fill="url(#pattern_L1_30)"/></g></svg>