<?xml version="1.0" encoding="utf-8"?>
<!-- Generator: Adobe Illustrator 21.1.0, SVG Export Plug-In . SVG Version: 6.00 Build 0)  -->
<svg version="1.1" id="Layer_1" xmlns="http://www.w3.org/2000/svg" xmlns:xlink="http://www.w3.org/1999/xlink" x="0px" y="0px"
	 viewBox="0 0 1000 1000" style="enable-background:new 0 0 1000 1000;" xml:space="preserve">
<style type="text/css">
	.st0{fill:#2F2F32;}
	.st1{fill:#DF5B4A;}
</style>
<g>
	<path class="st0" d="M500,897c-218.9,0-397-178.1-397-397s178.1-397,397-397s397,178.1,397,397S718.9,897,500,897z M500,121.1
		c-208.9,0-378.9,170-378.9,378.9s170,378.9,378.9,378.9s378.9-170,378.9-378.9S708.9,121.1,500,121.1z"/>
</g>
<g>
	<g>
		<path class="st0" d="M349.1,581H322v-53l-60.3-109h27.5l46.3,78.9l45.3-78.9h27.8l-59.4,108L349.1,581L349.1,581z"/>
	</g>
</g>
<g>
	<g>
		<path class="st0" d="M623.7,544.4L608.2,581h-28.4l71.5-162h28L750,581h-29.1l-15.5-36.5L623.7,544.4L623.7,544.4z M664.4,448.2
			l-30.5,71.9H695L664.4,448.2z"/>
	</g>
</g>
<g>
	<rect x="492" y="316.1" class="st1" width="16.1" height="367.7"/>
</g>
</svg>
