<?xml version="1.0" encoding="utf-8"?>
<!-- Generator: Adobe Illustrator 21.1.0, SVG Export Plug-In . SVG Version: 6.00 Build 0)  -->
<svg version="1.1" id="Layer_1" xmlns="http://www.w3.org/2000/svg" xmlns:xlink="http://www.w3.org/1999/xlink" x="0px" y="0px"
	 viewBox="0 0 1000 500" style="enable-background:new 0 0 1000 500;" xml:space="preserve">
<style type="text/css">
	.st0{fill:#FFFFFF;}
</style>
<polygon class="st0" points="700,136 798.2,72.1 870,118.8 870,89.8 906,89.8 906,142.2 985.9,194.1 969.8,218.9 798.2,107.4 
	727.1,153.6 "/>
<polyline class="st0" points="464.1,148.4 559.1,86.7 765.9,221.1 785.3,191.5 726.1,153 699,135.3 689,128.9 689,65.6 645.7,65.6 
	645.7,100.7 559.1,44.4 431.5,127.3 "/>
<g>
	<path class="st0" d="M28,332.7c0,0,13.1,11.9,27.6,11.9c5.8,0,12.1-2.3,12.1-9.2c0-13.7-51.9-13.2-51.9-48.7
		c0-21.3,17.9-35.3,40.8-35.3c24.8,0,37.1,13.1,37.1,13.1l-11.9,23c0,0-11.6-10.2-25.5-10.2c-5.8,0-12.2,2.6-12.2,9
		c0,14.5,51.9,11.9,51.9,48.4c0,19.2-14.7,35.8-40.6,35.8c-27.1,0-42.1-16.4-42.1-16.4L28,332.7z"/>
	<path class="st0" d="M137.2,277.6h-35v-24.2h98.2v24.2h-35v91.1h-28.2V277.6z"/>
	<path class="st0" d="M214.6,253.4h40.1c11.8,0,17.4,0.8,22.4,2.7c13.1,5,21.3,16.8,21.3,33.5c0,12.2-5.8,25.6-17.2,31.4v0.3
		c0,0,1.6,2.1,4.4,6.9l22.4,40.3h-31.4L256,329.8h-13.2v38.8h-28.2V253.4z M255,305.6c9,0,14.7-5,14.7-14.2
		c0-8.7-3.2-13.9-17.4-13.9h-9.5v28H255z"/>
	<path class="st0" d="M382.7,344.4h-35.9l-6.9,24.2h-29L350,253.4h29.7l39.2,115.2h-29L382.7,344.4z M364.6,279.7
		c0,0-2.6,12.6-4.7,19.8l-6.6,22.4h22.7l-6.4-22.4c-2.1-7.3-4.7-19.8-4.7-19.8H364.6z"/>
	<path class="st0" d="M447.6,277.6h-35v-24.2h98.2v24.2h-35v91.1h-28.2V277.6z"/>
	<path class="st0" d="M576.6,344.4h-35.9l-6.9,24.2h-29l39.2-115.2h29.7l39.2,115.2h-29L576.6,344.4z M558.5,279.7
		c0,0-2.6,12.6-4.7,19.8l-6.6,22.4h22.7l-6.4-22.4c-2.1-7.3-4.7-19.8-4.7-19.8H558.5z"/>
	<path class="st0" d="M662.4,253.4h47.9c22.4,0,37.6,16.4,37.6,39.6c0,23.2-15.2,40-37.6,40h-19.7v35.6h-28.2V253.4z M704.5,308.8
		c9.8,0,14.7-6.6,14.7-15.8s-4.8-15.5-14.2-15.5h-14.3v31.3H704.5z"/>
	<path class="st0" d="M764.6,253.4h40.1c11.8,0,17.4,0.8,22.4,2.7c13.1,5,21.3,16.8,21.3,33.5c0,12.2-5.8,25.6-17.2,31.4v0.3
		c0,0,1.6,2.1,4.4,6.9l22.4,40.3h-31.4L806,329.8h-13.2v38.8h-28.2V253.4z M805.1,305.6c9,0,14.7-5,14.7-14.2
		c0-8.7-3.2-13.9-17.4-13.9h-9.5v28H805.1z"/>
	<path class="st0" d="M926.6,251.4c34.8,0,60.3,25.8,60.3,58.8c0,33.8-25.5,60.3-60.3,60.3s-60.3-26.4-60.3-60.3
		C866.3,277.2,891.8,251.4,926.6,251.4z M926.6,344.8c17.2,0,31.1-14.8,31.1-34.5c0-18.9-13.9-33-31.1-33c-17.2,0-31.1,14.2-31.1,33
		C895.5,329.9,909.3,344.8,926.6,344.8z"/>
</g>
<polyline class="st0" points="466.1,149.4 528.4,190 505.9,224.7 270.8,71.9 35.7,224.7 13.1,190 270.8,22.5 369.3,86.6 369.3,47.2 
	418.6,47.2 418.6,118.6 433.5,128.3 "/>
<g>
	<path class="st0" d="M463.5,400.9c11.5,0,17.5,6.6,17.5,6.6l-5.3,8.6c0,0-5.2-4.8-11.7-4.8c-8.9,0-13.2,6.6-13.2,13.3
		c0,6.9,4.6,14,13.2,14c7,0,12.4-5.7,12.4-5.7l5.9,8.3c0,0-6.6,7.8-18.8,7.8c-14.6,0-24.4-10.4-24.4-24.2
		C439.1,411.3,449.5,400.9,463.5,400.9z"/>
	<path class="st0" d="M516.6,400.9c14.1,0,24.4,10.4,24.4,23.8c0,13.7-10.3,24.4-24.4,24.4c-14.1,0-24.4-10.7-24.4-24.4
		C492.3,411.3,502.6,400.9,516.6,400.9z M516.6,438.6c7,0,12.6-6,12.6-13.9c0-7.6-5.6-13.4-12.6-13.4c-7,0-12.6,5.7-12.6,13.4
		C504.1,432.6,509.7,438.6,516.6,438.6z"/>
	<path class="st0" d="M555.3,401.7h11.5l12.9,21.8c1.8,3.1,3.9,8,3.9,8h0.1c0,0-0.5-5-0.5-8v-21.8h11.4v46.6h-11.5l-13-21.7
		c-1.8-3.1-3.9-8-3.9-8h-0.1c0,0,0.5,5,0.5,8v21.7h-11.4V401.7z"/>
	<path class="st0" d="M621.1,411.5h-14.1v-9.8h39.7v9.8h-14.1v36.8h-11.4V411.5z"/>
	<path class="st0" d="M658.9,401.7h16.2c4.8,0,7,0.3,9.1,1.1c5.3,2,8.6,6.8,8.6,13.6c0,5-2.3,10.4-7,12.7v0.1c0,0,0.7,0.8,1.8,2.8
		l9.1,16.3h-12.7l-8.3-15.7h-5.3v15.7h-11.4V401.7z M675.2,422.8c3.7,0,5.9-2,5.9-5.7c0-3.5-1.3-5.6-7-5.6h-3.8v11.3H675.2z"/>
	<path class="st0" d="M733.3,438.5h-14.5l-2.8,9.8h-11.7l15.8-46.6h12l15.8,46.6h-11.7L733.3,438.5z M726,412.3c0,0-1,5.1-1.9,8
		l-2.7,9.1h9.2l-2.6-9.1c-0.8-2.9-1.9-8-1.9-8H726z"/>
	<path class="st0" d="M780.7,400.9c11.5,0,17.5,6.6,17.5,6.6l-5.3,8.6c0,0-5.2-4.8-11.7-4.8c-8.9,0-13.2,6.6-13.2,13.3
		c0,6.9,4.6,14,13.2,14c7,0,12.4-5.7,12.4-5.7l5.9,8.3c0,0-6.6,7.8-18.8,7.8c-14.6,0-24.4-10.4-24.4-24.2
		C756.2,411.3,766.6,400.9,780.7,400.9z"/>
	<path class="st0" d="M821.8,411.5h-14.1v-9.8h39.7v9.8h-14.1v36.8h-11.4V411.5z"/>
	<path class="st0" d="M859.6,401.7H871v46.6h-11.4V401.7z"/>
	<path class="st0" d="M888.5,401.7H900l12.9,21.8c1.8,3.1,3.9,8,3.9,8h0.1c0,0-0.5-5-0.5-8v-21.8h11.4v46.6h-11.5l-13-21.7
		c-1.8-3.1-3.9-8-3.9-8h-0.1c0,0,0.5,5,0.5,8v21.7h-11.4V401.7z"/>
	<path class="st0" d="M966.6,400.9c11.9,0,17.9,6.2,17.9,6.2l-5.5,8.5c0,0-4.8-4.3-11.3-4.3c-9.8,0-13.8,6.3-13.8,13.2
		c0,8.9,6.1,14.1,13.4,14.1c5.5,0,9.5-3.4,9.5-3.4v-3.6h-6.6V422h16.7v26.3h-9.5V447c0-1,0.1-2,0.1-2h-0.1c0,0-4.5,4-12.3,4
		c-11.9,0-22.9-8.9-22.9-24.2C942.2,411.3,952.4,400.9,966.6,400.9z"/>
</g>
</svg>
