<?xml version="1.0" encoding="utf-8"?>
<!-- Generator: Adobe Illustrator 21.1.0, SVG Export Plug-In . SVG Version: 6.00 Build 0)  -->
<svg version="1.1" id="Layer_1" xmlns="http://www.w3.org/2000/svg" xmlns:xlink="http://www.w3.org/1999/xlink" x="0px" y="0px"
	 viewBox="0 0 1000 1000" style="enable-background:new 0 0 1000 1000;" xml:space="preserve">
<style type="text/css">
	.st0{fill:#FFFFFF;}
</style>
<g>
	<path class="st0" d="M103,463.4c0-1.1,1-2.1,2.1-2.1h10.6c1.2,0,2.1,1,2.1,2.1V509c0,9.5,6.5,17,16.2,17s16.3-7.5,16.3-16.8v-45.8
		c0-1.1,0.9-2.1,2.1-2.1H163c1.1,0,2.1,1,2.1,2.1v46.4c0,17-13.5,30.7-31.1,30.7c-17.5,0-31-13.7-31-30.7V463.4z"/>
	<path class="st0" d="M206.7,463.4c0-1.1,0.9-2.1,2.1-2.1H235c13.7,0,25,11.2,25,24.7c0,13.8-11.3,25.1-24.9,25.1h-13.9v26.2
		c0,1.1-1,2.1-2.1,2.1h-10.3c-1.2,0-2.1-1-2.1-2.1V463.4z M234.1,497.4c6.2,0,11.5-5,11.5-11.6c0-6.1-5.2-10.8-11.5-10.8h-12.9v22.4
		H234.1z"/>
	<path class="st0" d="M295,463.4c0-1.1,0.9-2.1,2.1-2.1h26.2c13.7,0,25,11.2,25,24.7c0,13.8-11.3,25.1-24.9,25.1h-13.9v26.2
		c0,1.1-1,2.1-2.1,2.1h-10.3c-1.2,0-2.1-1-2.1-2.1L295,463.4L295,463.4z M322.5,497.4c6.2,0,11.5-5,11.5-11.6
		c0-6.1-5.2-10.8-11.5-10.8h-12.9v22.4H322.5z"/>
	<path class="st0" d="M383.4,463.4c0-1.1,0.9-2.1,2.1-2.1h45.4c1.2,0,2.1,1,2.1,2.1v9.1c0,1.1-0.9,2.1-2.1,2.1h-33v18.3h27.6
		c1.1,0,2.1,1,2.1,2.1v9.3c0,1.2-1,2.1-2.1,2.1h-27.6V526h33c1.2,0,2.1,1,2.1,2.1v9.2c0,1.1-0.9,2.1-2.1,2.1h-45.4
		c-1.2,0-2.1-1-2.1-2.1V463.4z"/>
	<path class="st0" d="M471.3,463.4c0-1.1,0.9-2.1,2.1-2.1h31.9c13.4,0,24.3,10.7,24.3,24c0,10.3-6.8,18.6-16.5,22.5l15.3,28.3
		c0.8,1.5,0,3.2-1.9,3.2h-11.7c-1,0-1.6-0.6-1.8-1l-14.8-29.6h-12.4v28.5c0,1.1-1,2.1-2.1,2.1h-10.3c-1.2,0-2.1-1-2.1-2.1
		L471.3,463.4L471.3,463.4z M504.1,496.8c5.9,0,11-5.1,11-11.4c0-5.9-5.1-10.8-11-10.8h-18.2v22.2L504.1,496.8L504.1,496.8z"/>
	<path class="st0" d="M602.5,460.1c11.3,0,19.4,3.6,27,10.4c1,0.9,1,2.2,0.1,3.1l-6.8,7c-0.8,0.9-1.9,0.9-2.8,0
		c-4.7-4.1-10.9-6.6-17.2-6.6c-14.3,0-24.9,11.9-24.9,26c0,13.9,10.7,25.8,25,25.8c6.7,0,12.4-2.6,17.1-6.4c0.9-0.8,2.1-0.7,2.8,0
		l6.9,7.1c0.9,0.8,0.7,2.2-0.1,3c-7.6,7.4-17.2,10.8-27.1,10.8c-22.3,0-40.3-17.7-40.3-40.1C562.2,478.1,580.2,460.1,602.5,460.1z"
		/>
	<path class="st0" d="M656.4,536.4l34.7-75.1c0.3-0.7,0.9-1.2,1.9-1.2h1.1c1.1,0,1.6,0.6,1.9,1.2l34.4,75.1c0.7,1.5-0.2,2.9-1.9,2.9
		h-9.7c-1.7,0-2.5-0.7-3.2-2.2l-5.5-12.1h-33.4l-5.5,12.1c-0.4,1.1-1.5,2.2-3.2,2.2h-9.7C656.6,539.3,655.8,537.9,656.4,536.4z
		 M704.6,512.7l-11.2-24.5h-0.3l-10.9,24.5H704.6z"/>
	<path class="st0" d="M758.3,528.4l4-6.9c0.9-1.6,2.8-1.6,3.8-0.8c0.6,0.3,9.6,6.9,16.9,6.9c5.8,0,10.2-3.8,10.2-8.6
		c0-5.7-4.8-9.6-14.2-13.4c-10.5-4.2-21-10.9-21-24.1c0-9.9,7.4-21.4,25.1-21.4c11.4,0,20.1,5.8,22.3,7.5c1.1,0.7,1.5,2.6,0.7,3.7
		l-4.2,6.4c-0.9,1.3-2.6,2.2-3.9,1.3c-0.9-0.6-9.4-6.1-15.5-6.1c-6.4,0-9.8,4.2-9.8,7.8c0,5.2,4.1,8.8,13.2,12.5
		c10.8,4.4,23.3,10.8,23.3,25.2c0,11.5-9.9,22.1-25.7,22.1c-14.1,0-22.3-6.6-24.5-8.7C757.8,530.8,757.3,530.2,758.3,528.4z"/>
	<path class="st0" d="M845.7,463.4c0-1.1,0.9-2.1,2.1-2.1h45.4c1.2,0,2.1,1,2.1,2.1v9.1c0,1.1-0.9,2.1-2.1,2.1h-33v18.3h27.6
		c1.1,0,2.1,1,2.1,2.1v9.3c0,1.2-1,2.1-2.1,2.1h-27.6V526h33c1.2,0,2.1,1,2.1,2.1v9.2c0,1.1-0.9,2.1-2.1,2.1h-45.4
		c-1.2,0-2.1-1-2.1-2.1V463.4z"/>
</g>
<path class="st0" d="M527.6,417.1H460h-6.2h-67.1H386h-72.9h-0.5h-65.3h-8.1H179h-5.5h-68.4c-1.1,0-2.1,1-2.1,2.1v10.4
	c0,1.1,1,2.1,2.1,2.1h68.4h5.5h60.3h8.1h65.3h0.5H386h0.5h67.1h6.2h67.6c1.1,0,2.1-1,2.1-2.1v-10.4
	C529.7,418.1,528.7,417.1,527.6,417.1z"/>
<path class="st0" d="M894.9,568.3h-67.6H821h-67.1h-0.5h-72.9H680h-41.8h-31.6h-42.2c-1.1,0-2.1,1-2.1,2.1v10.4c0,1.1,1,2.1,2.1,2.1
	h42.2h31.6H680h0.5h72.9h0.5H821h6.2h67.6c1.1,0,2.1-1,2.1-2.1v-10.4C897,569.3,896,568.3,894.9,568.3z"/>
</svg>
