<?xml version="1.0" encoding="utf-8"?>
<!-- Generator: Adobe Illustrator 21.0.2, SVG Export Plug-In . SVG Version: 6.00 Build 0)  -->
<svg version="1.1" id="Layer_1" xmlns="http://www.w3.org/2000/svg" xmlns:xlink="http://www.w3.org/1999/xlink" x="0px" y="0px"
	 viewBox="0 0 1000 1000" style="enable-background:new 0 0 1000 1000;" xml:space="preserve">
<style type="text/css">
	.st0{fill:#231F20;}
	.st1{fill:#D29C3D;}
</style>
<g>
	<g>
		<path class="st0" d="M392.2,438.4c-0.5-1.2,0.2-2.3,1.5-2.3h9.1c0.8,0,1.3,0.5,1.5,1l17.1,38.3h0.6l17.1-38.3c0.2-0.4,0.7-1,1.5-1
			h9.1c1.3,0,2,1.2,1.5,2.3l-27.6,59.9c-0.3,0.5-0.7,1-1.5,1h-0.9c-0.8,0-1.2-0.4-1.5-1L392.2,438.4z"/>
		<path class="st0" d="M469.1,496l27.7-59.9c0.3-0.5,0.7-1,1.5-1h0.9c0.9,0,1.2,0.4,1.5,1l27.4,59.9c0.5,1.2-0.2,2.3-1.5,2.3h-7.7
			c-1.3,0-2-0.5-2.6-1.8l-4.4-9.6h-26.6l-4.4,9.6c-0.4,0.9-1.2,1.8-2.6,1.8h-7.7C469.3,498.3,468.6,497.2,469.1,496z M507.5,477.1
			l-8.9-19.6h-0.3l-8.7,19.6H507.5z"/>
		<path class="st0" d="M558.5,436.8c0-0.9,0.8-1.6,1.7-1.6h2.2l37,39.3h0.1v-36.8c0-0.9,0.7-1.7,1.7-1.7h8.2c0.9,0,1.7,0.8,1.7,1.7
			v59.9c0,0.9-0.8,1.6-1.7,1.6h-2.1l-37.2-40.8H570v38.3c0,0.9-0.7,1.7-1.7,1.7h-8.1c-0.9,0-1.7-0.8-1.7-1.7V436.8z"/>
		<path class="st0" d="M677.2,435.2c9,0,15.5,2.8,21.5,8.3c0.8,0.7,0.8,1.8,0.1,2.5l-5.4,5.6c-0.6,0.7-1.5,0.7-2.2,0
			c-3.7-3.3-8.7-5.2-13.7-5.2c-11.4,0-19.8,9.5-19.8,20.7c0,11.1,8.5,20.6,19.9,20.6c5.3,0,9.9-2.1,13.6-5.1c0.7-0.6,1.7-0.5,2.2,0
			l5.5,5.7c0.7,0.6,0.5,1.8-0.1,2.4c-6.1,5.9-13.7,8.6-21.6,8.6c-17.8,0-32.1-14.1-32.1-31.9C645,449.5,659.4,435.2,677.2,435.2z"/>
		<path class="st0" d="M732.7,437.7c0-0.9,0.8-1.7,1.7-1.7h8.3c0.9,0,1.7,0.8,1.7,1.7v58.9c0,0.9-0.8,1.7-1.7,1.7h-8.3
			c-0.9,0-1.7-0.8-1.7-1.7V437.7z"/>
		<path class="st0" d="M791.2,446.7h-13.6c-1,0-1.7-0.8-1.7-1.7v-7.3c0-0.9,0.7-1.7,1.7-1.7h38.9c1,0,1.7,0.8,1.7,1.7v7.3
			c0,0.9-0.7,1.7-1.7,1.7h-13.6v49.9c0,0.9-0.8,1.7-1.7,1.7h-8.3c-0.9,0-1.7-0.8-1.7-1.7V446.7z"/>
		<path class="st0" d="M864.6,468.3l-20.3-29.7c-0.7-1.2,0-2.6,1.4-2.6h9.1c0.7,0,1.2,0.4,1.4,0.8l14.2,20.5l14.2-20.5
			c0.3-0.4,0.7-0.8,1.4-0.8h9.2c1.4,0,2.1,1.4,1.4,2.6l-20.6,29.6v28.4c0,0.9-0.8,1.7-1.7,1.7h-8.2c-1,0-1.7-0.8-1.7-1.7V468.3z"/>
	</g>
	<g>
		<path class="st1" d="M499.9,522.6c0-0.6,0.5-1.2,1.1-1.2h14.5c11.8,0,21.5,9.6,21.5,21.3c0,11.9-9.7,21.5-21.5,21.5H501
			c-0.6,0-1.1-0.5-1.1-1.2V522.6z M514.8,556.8c7.9,0,13.8-6,13.8-14c0-7.9-5.8-13.9-13.8-13.9h-7v27.9H514.8z"/>
		<path class="st1" d="M560.3,522.6c0-0.6,0.5-1.2,1.2-1.2h24.9c0.7,0,1.2,0.5,1.2,1.2v5c0,0.6-0.5,1.2-1.2,1.2h-18.1v10h15.1
			c0.6,0,1.2,0.5,1.2,1.2v5.1c0,0.7-0.5,1.2-1.2,1.2h-15.1v10.7h18.1c0.7,0,1.2,0.6,1.2,1.2v5c0,0.6-0.5,1.2-1.2,1.2h-24.9
			c-0.7,0-1.2-0.5-1.2-1.2V522.6z"/>
		<path class="st1" d="M609,558.2l2.2-3.8c0.5-0.9,1.5-0.9,2.1-0.4c0.3,0.2,5.3,3.8,9.2,3.8c3.2,0,5.6-2.1,5.6-4.7
			c0-3.1-2.6-5.3-7.8-7.3c-5.7-2.3-11.5-6-11.5-13.2c0-5.4,4-11.7,13.8-11.7c6.2,0,11,3.2,12.2,4.1c0.6,0.4,0.8,1.4,0.4,2l-2.3,3.5
			c-0.5,0.7-1.4,1.2-2.1,0.7c-0.5-0.3-5.1-3.4-8.5-3.4c-3.5,0-5.4,2.3-5.4,4.3c0,2.9,2.3,4.8,7.2,6.8c5.9,2.4,12.8,5.9,12.8,13.8
			c0,6.3-5.4,12.1-14.1,12.1c-7.7,0-12.2-3.6-13.5-4.8C608.7,559.5,608.4,559.2,609,558.2z"/>
		<path class="st1" d="M659.8,522.6c0-0.6,0.5-1.2,1.2-1.2h5.7c0.6,0,1.2,0.5,1.2,1.2v40.5c0,0.6-0.5,1.2-1.2,1.2H661
			c-0.6,0-1.2-0.5-1.2-1.2V522.6z"/>
		<path class="st1" d="M713.1,520.8c5.5,0,10.8,2.1,14.9,5.7c0.5,0.5,0.5,1.2,0.1,1.7l-3.8,4c-0.5,0.5-1,0.5-1.6,0
			c-2.6-2.3-5.9-3.5-9.2-3.5c-7.6,0-13.7,6.5-13.7,14.2c0,7.6,6.1,14,13.8,14c3.4,0,6.1-1,7.3-1.5v-5.2h-4.9c-0.7,0-1.2-0.5-1.2-1.1
			v-4.8c0-0.7,0.5-1.2,1.2-1.2h11.7c0.6,0,1.1,0.5,1.1,1.2v15.7c0,0.5-0.3,0.8-0.5,1c0,0-6.3,4-15.2,4c-12.2,0-22-9.7-22-21.9
			S701,520.8,713.1,520.8z"/>
		<path class="st1" d="M753,521.9c0-0.6,0.5-1.1,1.2-1.1h1.5l25.4,27h0.1v-25.3c0-0.6,0.5-1.2,1.2-1.2h5.6c0.6,0,1.2,0.5,1.2,1.2
			v41.1c0,0.6-0.5,1.1-1.2,1.1h-1.5l-25.6-28.1h-0.1v26.3c0,0.6-0.5,1.2-1.2,1.2h-5.6c-0.6,0-1.2-0.5-1.2-1.2V521.9z"/>
	</g>
	<g>
		<g>
			<path class="st1" d="M103.5,421.1c-1.4-3.1,0.5-6.2,4.1-6.2h31.9c1.9,0,3.6,1.4,4.1,2.6l39.6,87.5h1.4l39.6-87.5
				c0.5-1.2,2.2-2.6,4.1-2.6h68.3c3.6,0-21.3,7.5-22.7,10.6l-84.9,157c-0.7,1.4-2.2,2.6-4.1,2.6h-2.4c-1.9,0-3.4-1.2-4.1-2.6
				L103.5,421.1z"/>
		</g>
		<g>
			<path class="st1" d="M296.5,414.9c23.6,0,41.1,7.3,57.2,22c2.1,1.9,2.1,4.7,0.2,6.6l-18.4,19.1c-1.7,1.7-4.3,1.7-5.9,0
				c-8.7-7.8-20.3-12.1-31.9-12.1c-26.7,0-46.3,22.2-46.3,48.7c0,26.3,19.9,48,46.6,48c11.1,0,23.2-4,31.7-11.4
				c1.7-1.4,4.7-1.4,6.1,0.2l18.4,19.6c1.7,1.7,1.4,4.7-0.2,6.4c-16.1,15.6-36.4,22.9-57.5,22.9c-47.3,0-85.4-37.6-85.4-84.9
				C211.1,452.9,249.2,414.9,296.5,414.9z"/>
		</g>
	</g>
	<circle class="st0" cx="296.6" cy="500" r="12.8"/>
</g>
</svg>
